<svg xmlns="http://www.w3.org/2000/svg" width="21.958" height="14.969" viewBox="0 0 21.958 14.969">
  <path id="delivery-truck" d="M4.006,629.455a2.028,2.028,0,0,1,1.431.59,1.987,1.987,0,0,1,0,2.844,2.036,2.036,0,0,1-1.431.59,2.012,2.012,0,0,1,0-4.024Zm0,3.13a1.118,1.118,0,1,0,0-2.236,1.118,1.118,0,0,0,0,2.236Zm-.519-9.832a.434.434,0,0,1,.3-.116H6.081a.448.448,0,0,1,.447.447v3.666a.448.448,0,0,1-.447.447H2.441a.448.448,0,0,1-.447-.447V624.3a.448.448,0,0,1,.148-.331Zm-.6,3.55H5.634v-2.777H3.961l-1.073.966Zm12.036,3.152a2.028,2.028,0,0,1,1.431.59,1.987,1.987,0,0,1,0,2.844,2.036,2.036,0,0,1-1.431.59,2.012,2.012,0,0,1,0-4.024Zm0,3.13a1.118,1.118,0,1,0,0-2.236,1.118,1.118,0,0,0,0,2.236Zm2.982-2.58h.9v-1.189a.447.447,0,1,1,.894,0v1.636a.448.448,0,0,1-.447.447H17.907a.447.447,0,1,1,0-.894Zm-2.267-2.437a.448.448,0,0,1,.447-.447h5.424a.447.447,0,1,1,0,.894H16.087A.446.446,0,0,1,15.64,627.569Zm4.963-1.614-5.424.031a.451.451,0,0,1-.452-.443.443.443,0,0,1,.443-.452l5.424-.031h0a.447.447,0,0,1,0,.894Zm-.912-2.03H14.267a.447.447,0,0,1,0-.894h5.424a.447.447,0,0,1,0,.894Zm-19.526-.6h0l3.2-2.651a.441.441,0,0,1,.286-.1H7.418v-1.61a.448.448,0,0,1,.447-.447H19.253a.448.448,0,0,1,.447.447v3.273a.447.447,0,0,1-.894,0V619.4H8.307v10.6h3.666a.447.447,0,1,1,0,.894H6.514a.447.447,0,1,1,0-.894h.9v-8.544h-3.6L.894,623.875.926,630h.465a.447.447,0,1,1,0,.894H.483a.445.445,0,0,1-.447-.443L0,623.67A.472.472,0,0,1,.165,623.321Z" transform="translate(0 -618.51)" fill="#fff"/>
</svg>
