<svg xmlns="http://www.w3.org/2000/svg" width="11.433" height="14.42" viewBox="0 0 11.433 14.42">
  <g id="Group_11567" data-name="Group 11567" transform="translate(0 0)" opacity="0.43">
    <path id="Subtraction_44" data-name="Subtraction 44" d="M4812.04-3490.709H4803.8l-1.343-1.811,1.05-8.7h8.53l.993,8.7-.992,1.81Zm-5.786-5.69a.421.421,0,0,0-.3.123.417.417,0,0,0-.124.3.419.419,0,0,0,.124.3l1.024,1.023a.425.425,0,0,0,.3.125.425.425,0,0,0,.3-.125l2.185-2.184a.425.425,0,0,0,0-.6.423.423,0,0,0-.3-.124.415.415,0,0,0-.3.124l-1.886,1.887-.726-.726A.417.417,0,0,0,4806.254-3496.4Z" transform="translate(-4802.141 3504.599)" fill="#fff"/>
    <g id="Group_11172" data-name="Group 11172" transform="translate(0)">
      <g id="shopping-bag_1_" data-name="shopping-bag (1)" transform="translate(0 0)">
        <g id="Group_11169" data-name="Group 11169" transform="translate(0)">
          <g id="Group_11168" data-name="Group 11168" transform="translate(0)">
            <path id="Path_31565" data-name="Path 31565" d="M64.447,11.891,63.8,3.777A1.014,1.014,0,0,0,62.8,2.845H61.524V2.787a2.787,2.787,0,0,0-5.575,0v.057H54.678a1.014,1.014,0,0,0-1.006.931l-.644,8.117a2.348,2.348,0,0,0,2.341,2.528h6.738a2.348,2.348,0,0,0,2.341-2.529Zm-7.653-9.1a1.943,1.943,0,1,1,3.885,0v.057H56.794Zm6.414,10.306a1.488,1.488,0,0,1-1.1.482H55.368a1.5,1.5,0,0,1-1.5-1.617l.644-8.117a.166.166,0,0,1,.164-.152h1.272v1.04a.422.422,0,1,0,.845,0V3.689H60.68v1.04a.422.422,0,0,0,.845,0V3.689H62.8a.166.166,0,0,1,.164.153l.644,8.114A1.488,1.488,0,0,1,63.209,13.094Z" transform="translate(-53.02)" fill="#fff"/>
          </g>
        </g>
      </g>
    </g>
  </g>
</svg>
