<svg xmlns="http://www.w3.org/2000/svg" width="25.753" height="22.264" viewBox="0 0 25.753 22.264">
  <g id="heart_1_" data-name="heart (1)" transform="translate(0.5 0.5)">
    <path id="heart_1_2" data-name="heart (1)" d="M22.79,2.081A6.768,6.768,0,0,0,17.839,0a6.37,6.37,0,0,0-3.889,1.3,7.809,7.809,0,0,0-1.572,1.585A7.8,7.8,0,0,0,10.8,1.3,6.369,6.369,0,0,0,6.915,0,6.768,6.768,0,0,0,1.964,2.081,7.324,7.324,0,0,0,0,7.183a8.732,8.732,0,0,0,2.455,5.823A51.647,51.647,0,0,0,8.6,18.575c.852.7,1.817,1.5,2.819,2.341a1.492,1.492,0,0,0,1.913,0c1-.846,1.968-1.641,2.82-2.342A51.618,51.618,0,0,0,22.3,13.006a8.731,8.731,0,0,0,2.455-5.823,7.323,7.323,0,0,0-1.964-5.1Zm0,0" transform="translate(0)" fill="none" stroke="#fff" stroke-width="1"/>
  </g>
</svg>
