<svg xmlns="http://www.w3.org/2000/svg" width="18" height="20.286" viewBox="0 0 18 20.286">
  <g id="Group_13149" data-name="Group 13149" transform="translate(-39 -42)">
    <g id="bell_2_" data-name="bell (2)" transform="translate(37 42)">
      <g id="Group_13146" data-name="Group 13146" transform="translate(8.762 0)">
        <path id="Path_36466" data-name="Path 36466" d="M12.958,3.533a.423.423,0,0,1-.423-.423V1.691a.845.845,0,1,0-1.691,0v1.42a.423.423,0,1,1-.845,0V1.691a1.691,1.691,0,0,1,3.381,0v1.42A.422.422,0,0,1,12.958,3.533Z" transform="translate(-10 0)" fill="#fff"/>
      </g>
      <g id="Group_13147" data-name="Group 13147" transform="translate(7.494 16.905)">
        <path id="Path_36467" data-name="Path 36467" d="M11.458,23.381A2.962,2.962,0,0,1,8.5,20.423a.423.423,0,0,1,.845,0,2.113,2.113,0,1,0,4.226,0,.423.423,0,0,1,.845,0A2.962,2.962,0,0,1,11.458,23.381Z" transform="translate(-8.5 -20)" fill="#fff"/>
      </g>
      <g id="Group_13148" data-name="Group 13148" transform="translate(2 2.536)">
        <path id="Path_36468" data-name="Path 36468" d="M17.637,18.215H3.268a1.268,1.268,0,0,1-.824-2.231,5.877,5.877,0,0,0,2.092-4.5V8.917a5.917,5.917,0,0,1,11.834,0v2.568a5.87,5.87,0,0,0,2.085,4.493,1.268,1.268,0,0,1-.817,2.237ZM10.453,3.845A5.077,5.077,0,0,0,5.381,8.917v2.568A6.715,6.715,0,0,1,3,16.623a.422.422,0,0,0,.271.746H17.637a.423.423,0,0,0,.275-.744,6.72,6.72,0,0,1-2.388-5.141V8.917a5.077,5.077,0,0,0-5.072-5.072Z" transform="translate(-2 -3)" fill="#fff"/>
      </g>
    </g>
    <circle id="Ellipse_3144" data-name="Ellipse 3144" cx="4" cy="4" r="4" transform="translate(49 44)" fill="#fff"/>
    <path id="Path_36469" data-name="Path 36469" d="M.357-.035H3.7V-.448H1.106c.987-.728,2.436-1.911,2.436-3.192A1.382,1.382,0,0,0,2.023-5.1,1.557,1.557,0,0,0,.4-3.465H.875c.042-.7.406-1.218,1.148-1.218A.937.937,0,0,1,3.052-3.619c0,1.071-1.253,2.156-2.7,3.234Z" transform="translate(51 50.569)" fill="#333742"/>
  </g>
</svg>
