<svg xmlns="http://www.w3.org/2000/svg" width="12.403" height="12.397" viewBox="0 0 12.403 12.397">
  <path id="iconfinder_-_Star-Favorite-Featured-Famous-Super_3844428" d="M13.337,6.276a.79.79,0,0,0-.63-.536L9.737,5.295,8.4,2.456a.781.781,0,0,0-1.42,0L5.662,5.284l-2.99.455a.79.79,0,0,0-.63.536.815.815,0,0,0,.189.832L4.394,9.321l-.511,3.12a.806.806,0,0,0,.33.8.768.768,0,0,0,.821.046L7.671,11.81l2.675,1.473a.769.769,0,0,0,.821-.046.806.806,0,0,0,.33-.8l-.512-3.124,2.163-2.209A.815.815,0,0,0,13.337,6.276Z" transform="translate(-1.488 -1.5)" fill="#fdd14b" stroke="#fdd14b" stroke-width="1"/>
</svg>
